<?xml version="1.0" encoding="UTF-8" standalone="no" ?>
<!DOCTYPE svg PUBLIC "-//W3C//DTD SVG 1.1//EN" "http://www.w3.org/Graphics/SVG/1.1/DTD/svg11.dtd">
<svg xmlns="http://www.w3.org/2000/svg" xmlns:xlink="http://www.w3.org/1999/xlink" version="1.1" width="1280" height="1024" viewBox="0 0 1280 1024" xml:space="preserve">
<desc>Created with Fabric.js 4.4.0</desc>
<defs>
</defs>
<g transform="matrix(1 0 0 1 640 512)" id="background-logo"  >
<rect style="stroke: none; stroke-width: 0; stroke-dasharray: none; stroke-linecap: butt; stroke-dashoffset: 0; stroke-linejoin: miter; stroke-miterlimit: 4; fill: rgb(0,0,0); fill-rule: nonzero; opacity: 1;"  paint-order="stroke"  x="-640" y="-512" rx="0" ry="0" width="1280" height="1024" />
</g>
<g transform="matrix(1.9211538461538462 0 0 1.9211538461538462 640.9571410321922 362.69122849919717)" id="logo-logo"  >
<g style=""  paint-order="stroke"   >
		<g transform="matrix(4.878404367654348 0 0 -4.878404367654348 -5.684342e-14 0)"  >
<linearGradient id="SVGID_1_1_140786" gradientUnits="userSpaceOnUse" gradientTransform="matrix(1 0 0 1 33.5 53.662000000000006)"  x1="0" y1="0" x2="0" y2="36">
<stop offset="0%" style="stop-color:rgb(250,217,97);stop-opacity: 1"/>
<stop offset="100%" style="stop-color:rgb(247,107,28);stop-opacity: 1"/>
</linearGradient>
<path style="stroke: none; stroke-width: 1; stroke-dasharray: none; stroke-linecap: butt; stroke-dashoffset: 0; stroke-linejoin: miter; stroke-miterlimit: 4; fill: url(#SVGID_1_1_140786); fill-rule: nonzero; opacity: 1;"  paint-order="stroke"  transform=" translate(-79.3735, -71.6075)" d="M 80.086 58.54 L 84.798 58.54 L 84.798 63.251999999999995 L 80.086 63.251999999999995 z M 73.947 64.681 L 73.947 64.68 L 78.657 64.68 L 78.657 69.39200000000001 C 76.056 69.39200000000001 73.947 67.28200000000001 73.947 64.68100000000001 M 73.947 58.54000000000001 L 78.658 58.54000000000001 L 78.658 63.25200000000001 L 73.947 63.25200000000001 z M 80.087 69.39200000000001 L 80.086 69.39200000000001 L 80.086 64.68 L 84.798 64.68 L 84.798 64.68100000000001 C 84.798 67.28200000000001 82.68900000000001 69.39200000000001 80.087 69.39200000000001 M 79.364 85.033 L 55.16 53.662 L 56.348 53.662 L 79.364 83.48 L 102.398 53.662 L 103.58699999999999 53.662 z M 123.538 55.627 L 97.011 83.696 L 90.38 75.303 L 79.364 89.553 L 65.098 71.057 L 58.838 78.192 L 38.478 55.627 L 33.5 55.627 L 33.5 53.662 L 54.064 53.662 L 79.364 86.44800000000001 L 104.683 53.662000000000006 L 125.24700000000001 53.662000000000006 L 125.24700000000001 55.62700000000001 z M 97.125 80.786 L 112.215 64.82000000000001 L 109.34400000000001 66.97200000000001 L 105.64500000000001 67.441 L 98.96900000000001 77.261 L 92.82300000000001 72.128 L 91.57300000000001 73.747 z M 58.878 75.246 L 63.913 69.52799999999999 L 63.739 69.30099999999999 L 58.251999999999995 72.67199999999998 L 55.739999999999995 66.52799999999998 L 53.504 67.64099999999998 L 50.949 66.23699999999998 z" stroke-linecap="round" />
</g>
</g>
</g>
<g transform="matrix(1.9211538461538462 0 0 1.9211538461538462 624.9673775706538 658.1776970155527)" id="text-logo-path-group"  >
<g style=""  paint-order="stroke"   >
		<g transform="matrix(1 0 0 1 0 0)" id="text-logo-path-0"  >
<path style="stroke: none; stroke-width: 0; stroke-dasharray: none; stroke-linecap: butt; stroke-dashoffset: 0; stroke-linejoin: miter; stroke-miterlimit: 4; fill: rgb(250,217,97); fill-rule: nonzero; opacity: 1;"  paint-order="stroke"  transform=" translate(-302.70500000000004, 20.3)" d="M 23.08 -9.69 L 23.08 -40.6 L 17.28 -40.6 L 17.28 -9.69 C 17.28 -7.02 15.08 -4.81 12.41 -4.81 C 9.74 -4.81 7.6 -7.02 7.6 -9.69 L 1.8 -9.69 C 1.8 -3.83 6.55 0.99 12.41 0.99 C 18.27 0.99 23.08 -3.83 23.08 -9.69 Z M 37.18 -41.59 C 31.32 -41.59 26.56 -36.77 26.56 -30.91 L 26.56 -9.69 C 26.56 -3.83 31.32 0.99 37.18 0.99 C 43.04 0.99 47.85 -3.83 47.85 -9.69 L 47.85 -30.91 C 47.85 -36.77 43.04 -41.59 37.18 -41.59 Z M 32.36 -9.69 L 32.36 -30.91 C 32.36 -33.58 34.51 -35.79 37.18 -35.79 C 39.85 -35.79 42.05 -33.58 42.05 -30.91 L 42.05 -9.69 C 42.05 -7.02 39.85 -4.81 37.18 -4.81 C 34.51 -4.81 32.36 -7.02 32.36 -9.69 Z M 71.75 0 L 71.75 -40.6 L 65.95 -40.6 L 65.95 -23.2 L 57.13 -23.2 L 57.13 -40.6 L 51.33 -40.6 L 51.33 0 L 57.13 0 L 57.13 -17.4 L 65.95 -17.4 L 65.95 0 Z M 95.64 0 L 95.64 -40.6 L 89.84 -40.6 L 89.84 -16.12 L 81.03 -40.6 L 75.23 -40.6 L 75.23 0 L 81.03 0 L 81.03 -24.48 L 89.84 0 Z M 113.51 -21.05 L 111.65 -22.5 C 111.36 -22.79 111.07 -23.03 110.78 -23.26 C 108.17 -25.4 104.98 -28.01 104.98 -30.91 C 104.98 -33.58 107.13 -35.79 109.79 -35.79 C 112.46 -35.79 114.67 -33.58 114.67 -30.91 L 120.47 -30.91 C 120.47 -36.77 115.65 -41.59 109.79 -41.59 C 103.94 -41.59 99.18 -36.77 99.18 -30.91 C 99.18 -25.23 103.94 -21.34 107.13 -18.79 C 107.42 -18.56 107.71 -18.33 107.94 -18.1 L 109.85 -16.53 C 113.74 -13.4 114.67 -12.53 114.67 -9.69 C 114.67 -7.02 112.46 -4.81 109.79 -4.81 C 107.13 -4.81 104.98 -7.02 104.98 -9.69 L 99.18 -9.69 C 99.18 -3.83 103.94 0.99 109.79 0.99 C 115.65 0.99 120.47 -3.83 120.47 -9.69 C 120.47 -15.37 117.57 -17.75 113.51 -21.05 Z M 134.56 -41.59 C 128.7 -41.59 123.95 -36.77 123.95 -30.91 L 123.95 -9.69 C 123.95 -3.83 128.7 0.99 134.56 0.99 C 140.42 0.99 145.23 -3.83 145.23 -9.69 L 145.23 -30.91 C 145.23 -36.77 140.42 -41.59 134.56 -41.59 Z M 129.75 -9.69 L 129.75 -30.91 C 129.75 -33.58 131.89 -35.79 134.56 -35.79 C 137.23 -35.79 139.43 -33.58 139.43 -30.91 L 139.43 -9.69 C 139.43 -7.02 137.23 -4.81 134.56 -4.81 C 131.89 -4.81 129.75 -7.02 129.75 -9.69 Z M 169.13 0 L 169.13 -40.6 L 163.33 -40.6 L 163.33 -16.12 L 154.51 -40.6 L 148.71 -40.6 L 148.71 0 L 154.51 0 L 154.51 -24.48 L 163.33 0 Z M 195.11 -23.2 L 195.11 -34.8 L 206.71 -34.8 L 206.71 -40.6 L 189.31 -40.6 L 189.31 0 L 195.11 0 L 195.11 -17.4 L 202.83 -17.4 L 202.83 -23.2 Z M 214.77 -7.71 L 223.47 -7.71 L 224.92 0 L 230.72 0 L 223.01 -40.6 L 215.24 -40.6 L 207.52 0 L 213.32 0 Z M 215.93 -13.8 L 219.12 -30.45 L 222.31 -13.8 Z M 259.38 0 L 259.38 -40.6 L 253.58 -40.6 L 246.85 -16.36 L 240.06 -40.6 L 234.26 -40.6 L 234.26 0 L 240.06 0 L 240.06 -19.84 L 243.95 -5.97 L 249.75 -5.97 L 253.58 -19.84 L 253.58 0 Z M 262.91 -40.6 L 262.91 0 L 268.71 0 L 268.71 -40.6 Z M 289.65 0 L 289.65 -5.8 L 278.05 -5.8 L 278.05 -40.6 L 272.25 -40.6 L 272.25 0 Z M 303.69 -19.55 L 312.5 -40.6 L 306.7 -40.6 L 300.79 -26.45 L 294.81 -40.6 L 289.01 -40.6 L 297.89 -19.55 L 297.89 0 L 303.69 0 Z M 343.36 -4.81 C 340.69 -4.81 338.55 -7.02 338.55 -9.69 L 338.55 -30.91 C 338.55 -33.58 340.69 -35.79 343.36 -35.79 C 346.03 -35.79 348.23 -33.58 348.23 -30.91 L 354.03 -30.91 C 354.03 -36.77 349.22 -41.59 343.36 -41.59 C 337.5 -41.59 332.75 -36.77 332.75 -30.91 L 332.75 -9.69 C 332.75 -3.83 337.5 0.99 343.36 0.99 C 349.22 0.99 354.03 -3.83 354.03 -9.69 L 348.23 -9.69 C 348.23 -7.02 346.03 -4.81 343.36 -4.81 Z M 368.13 -41.59 C 362.27 -41.59 357.51 -36.77 357.51 -30.91 L 357.51 -9.69 C 357.51 -3.83 362.27 0.99 368.13 0.99 C 373.98 0.99 378.8 -3.83 378.8 -9.69 L 378.8 -30.91 C 378.8 -36.77 373.98 -41.59 368.13 -41.59 Z M 363.31 -9.69 L 363.31 -30.91 C 363.31 -33.58 365.46 -35.79 368.13 -35.79 C 370.79 -35.79 373 -33.58 373 -30.91 L 373 -9.69 C 373 -7.02 370.79 -4.81 368.13 -4.81 C 365.46 -4.81 363.31 -7.02 363.31 -9.69 Z M 402.69 0 L 402.69 -40.6 L 396.89 -40.6 L 396.89 -16.12 L 388.08 -40.6 L 382.28 -40.6 L 382.28 0 L 388.08 0 L 388.08 -24.48 L 396.89 0 Z M 420.56 -21.05 L 418.7 -22.5 C 418.41 -22.79 418.12 -23.03 417.83 -23.26 C 415.22 -25.4 412.03 -28.01 412.03 -30.91 C 412.03 -33.58 414.18 -35.79 416.85 -35.79 C 419.51 -35.79 421.72 -33.58 421.72 -30.91 L 427.52 -30.91 C 427.52 -36.77 422.7 -41.59 416.85 -41.59 C 410.99 -41.59 406.23 -36.77 406.23 -30.91 C 406.23 -25.23 410.99 -21.34 414.18 -18.79 C 414.47 -18.56 414.76 -18.33 414.99 -18.1 L 416.9 -16.53 C 420.79 -13.4 421.72 -12.53 421.72 -9.69 C 421.72 -7.02 419.51 -4.81 416.85 -4.81 C 414.18 -4.81 412.03 -7.02 412.03 -9.69 L 406.23 -9.69 C 406.23 -3.83 410.99 0.99 416.85 0.99 C 422.7 0.99 427.52 -3.83 427.52 -9.69 C 427.52 -15.37 424.62 -17.75 420.56 -21.05 Z M 443.58 -34.8 L 450.31 -34.8 L 450.31 -40.6 L 431 -40.6 L 431 -34.8 L 437.78 -34.8 L 437.78 0 L 443.58 0 Z M 473.16 -26.1 L 473.16 -30.91 C 473.16 -36.25 468.87 -40.6 463.54 -40.6 L 453.85 -40.6 L 453.85 0 L 459.65 0 L 459.65 -16.41 L 463.54 -16.41 C 465.62 -16.41 467.36 -14.67 467.36 -12.59 L 467.36 0 L 473.16 0 L 473.16 -12.59 C 473.16 -15.2 472.12 -17.57 470.44 -19.31 C 472.12 -21.05 473.16 -23.49 473.16 -26.1 Z M 459.65 -22.21 L 459.65 -34.8 L 463.54 -34.8 C 465.62 -34.8 467.36 -33.06 467.36 -30.91 L 467.36 -26.1 C 467.36 -23.95 465.62 -22.21 463.54 -22.21 Z M 497.99 -9.69 L 497.99 -40.6 L 492.19 -40.6 L 492.19 -9.69 C 492.19 -7.02 489.98 -4.81 487.32 -4.81 C 484.65 -4.81 482.5 -7.02 482.5 -9.69 L 482.5 -40.6 L 476.7 -40.6 L 476.7 -9.69 C 476.7 -3.83 481.46 0.99 487.32 0.99 C 493.17 0.99 497.99 -3.83 497.99 -9.69 Z M 512.08 -4.81 C 509.41 -4.81 507.27 -7.02 507.27 -9.69 L 507.27 -30.91 C 507.27 -33.58 509.41 -35.79 512.08 -35.79 C 514.75 -35.79 516.95 -33.58 516.95 -30.91 L 522.75 -30.91 C 522.75 -36.77 517.94 -41.59 512.08 -41.59 C 506.22 -41.59 501.47 -36.77 501.47 -30.91 L 501.47 -9.69 C 501.47 -3.83 506.22 0.99 512.08 0.99 C 517.94 0.99 522.75 -3.83 522.75 -9.69 L 516.95 -9.69 C 516.95 -7.02 514.75 -4.81 512.08 -4.81 Z M 538.82 -34.8 L 545.55 -34.8 L 545.55 -40.6 L 526.23 -40.6 L 526.23 -34.8 L 533.02 -34.8 L 533.02 0 L 538.82 0 Z M 549.09 -40.6 L 549.09 0 L 554.89 0 L 554.89 -40.6 Z M 569.04 -41.59 C 563.18 -41.59 558.42 -36.77 558.42 -30.91 L 558.42 -9.69 C 558.42 -3.83 563.18 0.99 569.04 0.99 C 574.9 0.99 579.71 -3.83 579.71 -9.69 L 579.71 -30.91 C 579.71 -36.77 574.9 -41.59 569.04 -41.59 Z M 564.22 -9.69 L 564.22 -30.91 C 564.22 -33.58 566.37 -35.79 569.04 -35.79 C 571.71 -35.79 573.91 -33.58 573.91 -30.91 L 573.91 -9.69 C 573.91 -7.02 571.71 -4.81 569.04 -4.81 C 566.37 -4.81 564.22 -7.02 564.22 -9.69 Z M 603.61 0 L 603.61 -40.6 L 597.81 -40.6 L 597.81 -16.12 L 588.99 -40.6 L 583.19 -40.6 L 583.19 0 L 588.99 0 L 588.99 -24.48 L 597.81 0 Z" stroke-linecap="round" />
</g>
</g>
</g>
<g transform="matrix(1.9211538461538462 0 0 1.9211538461538462 641.2572462755817 791.1399619317185)" id="tagline-0b2a9ba5-175f-4f9e-8860-2dd158bde3e3-logo-path-group"  >
<g style=""  paint-order="stroke"   >
		<g transform="matrix(1 0 0 1 0 0)" id="tagline-0b2a9ba5-175f-4f9e-8860-2dd158bde3e3-logo-path-0"  >
<linearGradient id="SVGID_140787" gradientUnits="userSpaceOnUse" gradientTransform="matrix(1 0 0 1 6.209999999999994 -41.23)"  x1="0" y1="0" x2="0" y2="70">
<stop offset="0%" style="stop-color:rgb(250,217,97);stop-opacity: 1"/>
<stop offset="100%" style="stop-color:rgb(247,107,28);stop-opacity: 1"/>
</linearGradient>
<path style="stroke: none; stroke-width: 0; stroke-dasharray: none; stroke-linecap: butt; stroke-dashoffset: 0; stroke-linejoin: miter; stroke-miterlimit: 4; fill: url(#SVGID_140787); fill-rule: nonzero; opacity: 1;"  paint-order="stroke"  transform=" translate(-119.42999999999999, 20.145)" d="M 24.49 0 L 6.21 0 L 6.21 -40.29 L 23.86 -40.29 L 23.86 -36.57 L 10.54 -36.57 L 10.54 -22.31 L 21.4 -22.31 L 21.4 -18.59 L 10.54 -18.59 L 10.54 -3.72 L 24.49 -3.72 L 24.49 0 Z M 32.54 -7.75 L 32.54 -7.75 L 32.54 -13.02 L 36.87 -13.02 L 36.87 -7.51 Q 36.87 -5.27 38.43 -4.03 Q 39.99 -2.79 43.02 -2.79 Q 46.05 -2.79 47.6 -4.03 Q 49.16 -5.27 49.16 -7.4 Q 49.16 -9.54 48.69 -10.81 Q 48.23 -12.08 46.8 -13.5 L 46.8 -13.5 L 35.87 -24.19 Q 33.97 -26.1 33.26 -27.93 Q 32.54 -29.76 32.54 -32.54 L 32.54 -32.54 Q 32.54 -36.69 35.12 -38.96 Q 37.69 -41.23 42.9 -41.23 L 42.9 -41.23 Q 52.89 -41.23 52.89 -32.54 L 52.89 -32.54 L 52.89 -27.28 L 48.53 -27.28 L 48.53 -32.79 Q 48.53 -35.03 47.08 -36.27 Q 45.62 -37.51 42.7 -37.51 Q 39.78 -37.51 38.33 -36.27 Q 36.87 -35.03 36.87 -32.86 Q 36.87 -30.7 37.31 -29.46 Q 37.75 -28.21 39.23 -26.85 L 39.23 -26.85 L 50.34 -16.2 Q 52.13 -14.2 52.81 -12.37 Q 53.49 -10.54 53.49 -7.75 L 53.49 -7.75 Q 53.49 0.94 43.02 0.94 Q 32.54 0.94 32.54 -7.75 Z M 63.7 -7.14 L 63.7 -7.14 L 63.7 -40.29 L 77.35 -40.29 L 77.35 -36.57 L 68.02 -36.57 L 68.02 -6.87 Q 68.02 -5.15 68.93 -3.97 Q 69.84 -2.79 71.48 -2.79 Q 73.11 -2.79 73.99 -3.94 Q 74.87 -5.09 74.87 -6.87 L 74.87 -6.87 L 74.87 -14.26 L 79.2 -14.26 L 79.2 -7.14 Q 79.2 -3.24 77.12 -1.15 Q 75.05 0.94 71.51 0.94 Q 67.96 0.94 65.83 -1.14 Q 63.7 -3.21 63.7 -7.14 Z M 92.52 0 L 86.95 0 L 86.95 -6.81 L 92.52 -6.81 L 92.52 0 Z M 138.5 0 L 117.61 0 L 117.61 -3.72 L 129.39 -20.4 Q 129.63 -20.71 130.33 -21.71 Q 131.02 -22.71 131.33 -23.13 Q 131.63 -23.55 132.19 -24.43 Q 132.75 -25.31 133.02 -25.82 Q 133.29 -26.34 133.63 -27.03 L 133.63 -27.03 Q 134.23 -28.28 134.23 -29.46 L 134.23 -29.46 L 134.23 -32.79 Q 134.23 -35.03 132.78 -36.27 Q 131.33 -37.51 128.4 -37.51 Q 125.48 -37.51 124.03 -36.27 Q 122.58 -35.03 122.58 -32.79 L 122.58 -32.79 L 122.58 -27.28 L 118.25 -27.28 L 118.25 -32.54 Q 118.25 -41.23 128.24 -41.23 L 128.24 -41.23 Q 133.45 -41.23 136.02 -38.96 Q 138.59 -36.69 138.59 -32.54 L 138.59 -32.54 L 138.59 -29.46 Q 138.59 -27.34 137.24 -24.82 Q 135.9 -22.31 132.75 -17.8 L 132.75 -17.8 L 122.88 -3.72 L 138.5 -3.72 L 138.5 0 Z M 148.92 -7.75 L 148.92 -7.75 L 148.92 -32.54 Q 148.92 -36.69 151.55 -38.96 Q 154.18 -41.23 159.42 -41.23 Q 164.66 -41.23 167.32 -38.96 Q 169.99 -36.69 169.99 -32.54 L 169.99 -32.54 L 169.99 -7.75 Q 169.99 -3.6 167.35 -1.33 Q 164.72 0.94 159.48 0.94 Q 154.24 0.94 151.58 -1.33 Q 148.92 -3.6 148.92 -7.75 Z M 153.24 -32.54 L 153.24 -7.75 Q 153.24 -2.79 159.45 -2.79 Q 165.66 -2.79 165.66 -7.75 L 165.66 -7.75 L 165.66 -32.54 Q 165.66 -37.51 159.45 -37.51 Q 153.24 -37.51 153.24 -32.54 L 153.24 -32.54 Z M 201.71 0 L 180.82 0 L 180.82 -3.72 L 192.6 -20.4 Q 192.84 -20.71 193.54 -21.71 Q 194.23 -22.71 194.54 -23.13 Q 194.84 -23.55 195.4 -24.43 Q 195.96 -25.31 196.23 -25.82 Q 196.5 -26.34 196.84 -27.03 L 196.84 -27.03 Q 197.44 -28.28 197.44 -29.46 L 197.44 -29.46 L 197.44 -32.79 Q 197.44 -35.03 195.99 -36.27 Q 194.54 -37.51 191.62 -37.51 Q 188.69 -37.51 187.24 -36.27 Q 185.79 -35.03 185.79 -32.79 L 185.79 -32.79 L 185.79 -27.28 L 181.46 -27.28 L 181.46 -32.54 Q 181.46 -41.23 191.45 -41.23 L 191.45 -41.23 Q 196.66 -41.23 199.23 -38.96 Q 201.8 -36.69 201.8 -32.54 L 201.8 -32.54 L 201.8 -29.46 Q 201.8 -27.34 200.46 -24.82 Q 199.11 -22.31 195.96 -17.8 L 195.96 -17.8 L 186.09 -3.72 L 201.71 -3.72 L 201.71 0 Z M 213.19 -31.24 L 211.31 -34.42 L 221.48 -40.29 L 225.84 -40.29 L 225.84 -3.72 L 232.65 -3.72 L 232.65 0 L 214.67 0 L 214.67 -3.72 L 221.48 -3.72 L 221.48 -36.03 L 213.19 -31.24 Z" stroke-linecap="round" />
</g>
</g>
</g>
</svg>